# xmcd
#
# Track frame offsets: 
#        150
#        6412
#        25020
#        29547
#        47625
#        49767
#        67792
#        71435
#        95512
#        114145
#        116152
#        134300
#        149177
#        152885
#        170955
#        190720
#        195632
#
# Disc length: 2802 seconds
#
# Revision: 4
# Processed by: cddbd v1.5.1PL0 Copyright (c) Steve Scherf et al.
# Submitted via: ExactAudioCopy v0.95a5
#
DISCID=f20af011
DTITLE=Heli Deinboek - So wars ich schwörs
DYEAR=1994
DGENRE=Blues
TTITLE0=Der Magische Titanic Test
TTITLE1=Schwarzer Prinz
TTITLE2=Hast Du auch 1 Karma?
TTITLE3=Steinbock aus Stein
TTITLE4=Rotweißroter Schäferhund
TTITLE5=Puh Puh Puh
TTITLE6=Heut´ zünd´ i mein´ Kanari an!
TTITLE7=Im Leben stirbt alles nur 1x
TTITLE8=Die Übergangslösung
TTITLE9=Erst war ich...
TTITLE10=Blinder Passagier
TTITLE11=Summ Summ Summ
TTITLE12=Das Warten
TTITLE13=Wie geht´s
TTITLE14=Lampe durch die Nacht
TTITLE15=Siehst du nicht?
TTITLE16=Der 6. Sinn
EXTD=
EXTT0=
EXTT1=
EXTT2=
EXTT3=
EXTT4=
EXTT5=
EXTT6=
EXTT7=
EXTT8=
EXTT9=
EXTT10=
EXTT11=
EXTT12=
EXTT13=
EXTT14=
EXTT15=
EXTT16=
PLAYORDER=
